# xmcd
#
# Track frame offsets:
# 150
# 17593
# 33024
# 46488
# 59517
# 72615
# 86978
# 99527
# 111024
# 126937
# 138957
# 153363
# 167456
# 182580
# 199791
# 212883
# 226745
# 240503
# 254042
# 268427
# 281084
# 296226
# 322274
#
# Disc length: 4481 seconds
#
#
# Revision: 0
# Processed by: cddbd v1.5.2PL0 Copyright (c) Steve Scherf et al.
# Submitted via: FreeRIP 2.951 
#
DISCID=63117f17
DTITLE=Sucessos sertanejo 2007 vol 03
DYEAR=1900
DGENRE=sertanejo
TTITLE0=nois enrola, mas num casa
TTITLE1=Tô com a maior moral
TTITLE2=Nem com reza
TTITLE3=Furdunço no Piseiro
TTITLE4=Tô Bonito Tô Beleza
TTITLE5=Que Bicho Que é
TTITLE6=Viola Na Cachola
TTITLE7=Se Fô desse jeito
TTITLE8=Aqui só tem Filé
TTITLE9=Recaída
TTITLE10=O olhar dessa malvada
TTITLE11=Fim de semana
TTITLE12=Quanto mais muiê, Mio
TTITLE13=Que seja bem -vinda
TTITLE14=O preço da Glória
TTITLE15=La bella Luna
TTITLE16=Você Não vai Me ver chorar
TTITLE17=Eu e a Venera
TTITLE18=Alvarada no Rancho
TTITLE19=Bão Tamém
TTITLE20=Paixaão Mineira
TTITLE21=Lugar melhor Que BH Magia E Mistério
TTITLE22=A Costela
EXTD=
EXTT0=
EXTT1=
EXTT2=
EXTT3=
EXTT4=
EXTT5=
EXTT6=
EXTT7=
EXTT8=
EXTT9=
EXTT10=
EXTT11=
EXTT12=
EXTT13=
EXTT14=
EXTT15=
EXTT16=
EXTT17=
EXTT18=
EXTT19=
EXTT20=
EXTT21=
EXTT22=
PLAYORDER=
